<svg xmlns="http://www.w3.org/2000/svg" viewBox="0 0 1920 1080"><g transform="
          rotate(308 960 540) 
          translate(-975.9067024681037 -548.9475201383084)
          scale(2.016569481737608)
        "><rect width="1920" height="1080" fill="rgb(255, 255, 255)"></rect><g transform="translate(0, 0)"><path fill="rgb(195, 180, 255)" fill-opacity="1" d="M0,529.415L160,525.113C320,520.81,640,512.206,960,510.872C1280,509.538,1600,515.475,1760,518.443L1920,521.411L1920,1080L1760,1080C1600,1080,1280,1080,960,1080C640,1080,320,1080,160,1080L0,1080Z"></path></g><g transform="translate(0, 540)"><path fill="rgb(135, 105, 255)" fill-opacity="1" d="M0,507.607L160,452.474C320,397.341,640,287.075,960,277.762C1280,268.45,1600,360.091,1760,405.911L1920,451.731L1920,540L1760,540C1600,540,1280,540,960,540C640,540,320,540,160,540L0,540Z"></path></g></g></svg>